<svg width="280" height="280" viewBox="0 0 280 280" fill="none" xmlns="http://www.w3.org/2000/svg">
<rect width="280" height="280" rx="32" fill="#C6BEAC"/>
<path fill-rule="evenodd" clip-rule="evenodd" d="M88.2072 136.414C114.831 136.414 136.414 114.831 136.414 88.2067C136.414 61.5826 114.831 39.9995 88.2072 39.9995C61.5831 39.9995 40 61.5826 40 88.2067C40 114.831 61.5831 136.414 88.2072 136.414ZM90.92 104.999L99.272 71.927H95L88.472 100.295L81.8 71.927H77.384L85.88 104.999H90.92Z" fill="#1C1C1C"/>
<path fill-rule="evenodd" clip-rule="evenodd" d="M191.793 240C218.417 240 240 218.417 240 191.793C240 165.169 218.417 143.586 191.793 143.586C165.169 143.586 143.586 165.169 143.586 191.793C143.586 218.417 165.169 240 191.793 240ZM201.776 178.576L202.256 174.928H182.528V178.576H190.064V208H194.432V178.576H201.776Z" fill="#1C1C1C"/>
<path d="M40 143.586H136.414V189.004C136.414 217.168 113.583 240 85.4183 240H40V143.586Z" fill="#1C1C1C"/>
<path d="M143.586 90.996C143.586 62.8317 166.417 40 194.582 40H240V136.414H143.586V90.996Z" fill="#1C1C1C"/>
</svg>
